# Blender v3.0.1 OBJ File: 'air_crystal_block.blend'
# www.blender.org
mtllib air_crystal_block.mtl
o Cube
v 0.000000 0.000000 1.000000
v 0.000000 1.000000 1.000000
v 0.000000 0.000000 0.000000
v 0.000000 1.000000 0.000000
v 1.000000 0.000000 1.000000
v 1.000000 1.000000 1.000000
v 1.000000 0.000000 0.000000
v 1.000000 1.000000 0.000000
vt 0.000000 0.000000
vt 0.000000 0.000000
vt 0.000000 0.000000
vt 0.000000 0.000000
vn 0.0000 -1.0000 0.0000
usemtl Material
s off
f 3/1/1 7/2/1 5/3/1 1/4/1
l 1 2
l 2 4
l 4 3
l 4 8
l 8 7
l 8 6
l 6 5
l 6 2
o Cylinder
v 0.501499 0.000000 0.211301
v 0.501499 0.796233 0.246949
v 0.768942 0.000000 0.366117
v 0.727874 0.721241 0.332506
v 0.768005 0.000000 0.674320
v 0.694290 0.721576 0.662113
v 0.501499 0.000000 0.811478
v 0.501499 0.787600 0.761759
v 0.217295 0.000000 0.674320
v 0.258019 0.800458 0.652794
v 0.242760 0.000000 0.332506
v 0.261880 0.797401 0.360516
vt 1.000000 0.500000
vt 1.000000 0.955216
vt 0.833333 1.000000
vt 0.833333 0.500000
vt 0.666667 1.000000
vt 0.666667 0.500000
vt 0.500016 0.995946
vt 0.500000 0.500000
vt 0.333333 1.000000
vt 0.333333 0.500000
vt 0.256103 0.490000
vt 0.042154 0.370000
vt 0.042154 0.130000
vt 0.250851 0.076966
vt 0.166667 1.000000
vt 0.166667 0.500000
vt -0.000000 0.955216
vt -0.000000 0.500000
vt 0.457846 0.370000
vt 0.457846 0.130000
vn 0.4392 0.0131 -0.8983
vn 0.9953 0.0809 0.0538
vn 0.4641 0.0589 0.8838
vn -0.4211 0.0514 0.9055
vn 0.0291 0.9996 0.0070
vn -0.9982 0.0376 -0.0463
vn -0.4257 0.0412 -0.9039
vn 0.3194 0.9473 0.0220
usemtl Material
s off
f 9/5/2 10/6/2 12/7/2 11/8/2
f 11/8/3 12/7/3 14/9/3 13/10/3
f 13/10/4 14/9/4 16/11/4 15/12/4
f 15/12/5 16/11/5 18/13/5 17/14/5
f 10/15/6 20/16/6 18/17/6 16/18/6
f 17/14/7 18/13/7 20/19/7 19/20/7
f 19/20/8 20/19/8 10/21/8 9/22/8
f 12/23/9 10/15/9 16/18/9 14/24/9
